# xmcd
# 
# Track frame offsets:
#     150
#     16135
#     31905
#     48670
#     64997
#     78840
#     99167
#     111917
#     128705
#     143627
#     156692
#     170690
#     188870
#     207665
#     223912
#     238000
#     257487
#     272990
#     287960
#     304282
#     319057
#     331500
# 
# Disc length: 4710
# 
# Revision: 12
# Processed by: cddbd v1.5.2PL0 Copyright (c) Steve Scherf et al.
# Submitted via: fre:ac v1.0.17
# 
DISCID=4c126416
DTITLE=Olivia Newton-John - The Definitive Collection
DYEAR=2003
DGENRE=Pop
TTITLE0=Have You Never Been Mellow
TTITLE1=Xanadu
TTITLE2=Physical
TTITLE3=I Honestly Love You
TTITLE4=Jolene
TTITLE5=Magic
TTITLE6=You're The One That I Want
TTITLE7=Sam
TTITLE8=Take Me Home Country Roads
TTITLE9=If Not For You
TTITLE10=Hopelessly Devoted To You
TTITLE11=Suddenly
TTITLE12=I Need Love
TTITLE13=Summer Nights
TTITLE14=Heart Attack
TTITLE15=Landslide
TTITLE16=A Little More Love
TTITLE17=What Is Life
TTITLE18=Deeper Than The Night
TTITLE19=Banks Of The Ohio
TTITLE20=Long Live Love
TTITLE21=The Grease Mega-Mix
EXTD=YEAR: 2003
EXTT0=
EXTT1=
EXTT2=
EXTT3=
EXTT4=
EXTT5=
EXTT6=
EXTT7=
EXTT8=
EXTT9=
EXTT10=
EXTT11=
EXTT12=
EXTT13=
EXTT14=
EXTT15=
EXTT16=
EXTT17=
EXTT18=
EXTT19=
EXTT20=
EXTT21=
PLAYORDER=
